<svg width="10" height="11" viewBox="0 0 10 11" fill="none" xmlns="http://www.w3.org/2000/svg">
<path d="M1.66667 11H8.33333C8.77536 11 9.19928 10.8262 9.51185 10.5167C9.82441 10.2073 10 9.78761 10 9.35V2.75C10 2.45826 9.88294 2.17847 9.67456 1.97218C9.46619 1.76589 9.18357 1.65 8.88889 1.65H7.77778V0.55C7.77778 0.404131 7.71925 0.264236 7.61506 0.161091C7.51087 0.0579462 7.36956 0 7.22222 0C7.07488 0 6.93357 0.0579462 6.82939 0.161091C6.7252 0.264236 6.66667 0.404131 6.66667 0.55V1.65H3.33333V0.55C3.33333 0.404131 3.2748 0.264236 3.17061 0.161091C3.06643 0.0579462 2.92512 0 2.77778 0C2.63044 0 2.48913 0.0579462 2.38494 0.161091C2.28075 0.264236 2.22222 0.404131 2.22222 0.55V1.65H1.11111C0.816426 1.65 0.533811 1.76589 0.325437 1.97218C0.117063 2.17847 0 2.45826 0 2.75V9.35C0 9.78761 0.175595 10.2073 0.488155 10.5167C0.800716 10.8262 1.22464 11 1.66667 11ZM1.11111 5.775C1.11111 5.70207 1.14038 5.63212 1.19247 5.58055C1.24456 5.52897 1.31522 5.5 1.38889 5.5H8.61111C8.68478 5.5 8.75544 5.52897 8.80753 5.58055C8.85962 5.63212 8.88889 5.70207 8.88889 5.775V9.35C8.88889 9.49587 8.83036 9.63576 8.72617 9.73891C8.62198 9.84205 8.48068 9.9 8.33333 9.9H1.66667C1.51932 9.9 1.37802 9.84205 1.27383 9.73891C1.16964 9.63576 1.11111 9.49587 1.11111 9.35V5.775Z" fill="white" fill-opacity="0.7"/>
</svg>
