<svg width="31" height="25" viewBox="0 0 31 25" fill="none" xmlns="http://www.w3.org/2000/svg">
<path d="M27.9 6.6391L19.2206 13.2034C17.0161 14.8701 13.9839 14.8701 11.7794 13.2034L3.1 6.6391V20.3125C3.1 21.1754 3.79396 21.875 4.65 21.875H26.35C27.206 21.875 27.9 21.1754 27.9 20.3125V6.6391ZM4.65 3.125C4.3674 3.125 4.10313 3.20239 3.875 3.33557C3.92771 3.36637 3.97944 3.40006 4.02939 3.43781L13.6397 10.7025C14.742 11.5359 16.258 11.5359 17.3603 10.7025L26.9706 3.43781C27.0202 3.40032 27.0712 3.3662 27.1235 3.33557C26.8956 3.2028 26.6321 3.125 26.35 3.125H4.65ZM31 20.3125C31 22.9013 28.9181 25 26.35 25H4.65C2.08188 25 0 22.9013 0 20.3125V4.6875C0 2.09867 2.08188 0 4.65 0H26.35C28.9181 0 31 2.09867 31 4.6875V20.3125Z" fill="black"/>
</svg>
