<svg width="1512" height="754" viewBox="0 0 1512 754" fill="none" xmlns="http://www.w3.org/2000/svg">
<path d="M1.00045 754H0.000453935L0.000487208 -2L1.00049 -2L1.00045 754Z" fill="url(#paint0_linear_113_1471)" fill-opacity="0.2"/>
<path d="M0 -1L0.000487208 -2L1512 -2V-1H0Z" fill="url(#paint1_linear_113_1471)" fill-opacity="0.2"/>
<path d="M0 60.95V59.95H1512V60.95H0Z" fill="url(#paint2_linear_113_1471)" fill-opacity="0.2"/>
<path d="M0 123.95V122.95H1512V123.95H0Z" fill="url(#paint3_linear_113_1471)" fill-opacity="0.2"/>
<path d="M0 186.95V185.95H1512V186.95H0Z" fill="url(#paint4_linear_113_1471)" fill-opacity="0.2"/>
<path d="M0 249.95V248.95H1512V249.95H0Z" fill="url(#paint5_linear_113_1471)" fill-opacity="0.2"/>
<path d="M0 312.95V311.95H1512V312.95H0Z" fill="url(#paint6_linear_113_1471)" fill-opacity="0.2"/>
<path d="M0 375.95V374.95H1512V375.95H0Z" fill="url(#paint7_linear_113_1471)" fill-opacity="0.2"/>
<path d="M0 438.95V437.95H1512V438.95H0Z" fill="url(#paint8_linear_113_1471)" fill-opacity="0.2"/>
<path d="M0 501.95V500.95H1512V501.95H0Z" fill="url(#paint9_linear_113_1471)" fill-opacity="0.2"/>
<path d="M0 564.95V563.95H1512V564.95H0Z" fill="url(#paint10_linear_113_1471)" fill-opacity="0.2"/>
<path d="M0 627.95V626.95H1512V627.95H0Z" fill="url(#paint11_linear_113_1471)" fill-opacity="0.2"/>
<path d="M0 690.95V689.95H1512V690.95H0Z" fill="url(#paint12_linear_113_1471)" fill-opacity="0.2"/>
<path d="M0 753.95V752.95H1512V753.95H0Z" fill="url(#paint13_linear_113_1471)" fill-opacity="0.2"/>
<path d="M66.7398 754H65.7398L65.7398 -2L66.7398 -2L66.7398 754Z" fill="url(#paint14_linear_113_1471)" fill-opacity="0.2"/>
<path d="M132.48 754H131.48L131.48 -2L132.48 -2L132.48 754Z" fill="url(#paint15_linear_113_1471)" fill-opacity="0.2"/>
<path d="M198.218 754H197.218L197.218 -2L198.218 -2L198.218 754Z" fill="url(#paint16_linear_113_1471)" fill-opacity="0.2"/>
<path d="M263.956 754H262.956L262.956 -2L263.956 -2L263.956 754Z" fill="url(#paint17_linear_113_1471)" fill-opacity="0.2"/>
<path d="M329.697 754H328.697L328.697 -2L329.697 -2L329.697 754Z" fill="url(#paint18_linear_113_1471)" fill-opacity="0.2"/>
<path d="M395.435 754H394.435L394.435 -2L395.435 -2L395.435 754Z" fill="url(#paint19_linear_113_1471)" fill-opacity="0.2"/>
<path d="M461.175 754H460.175L460.175 -2L461.175 -2L461.175 754Z" fill="url(#paint20_linear_113_1471)" fill-opacity="0.2"/>
<path d="M526.914 754H525.914L525.914 -2L526.914 -2L526.914 754Z" fill="url(#paint21_linear_113_1471)" fill-opacity="0.2"/>
<path d="M592.652 754H591.652L591.652 -2L592.652 -2L592.652 754Z" fill="url(#paint22_linear_113_1471)" fill-opacity="0.2"/>
<path d="M658.393 754H657.393L657.393 -2L658.393 -2L658.393 754Z" fill="url(#paint23_linear_113_1471)" fill-opacity="0.2"/>
<path d="M724.131 754H723.131L723.131 -2L724.131 -2L724.131 754Z" fill="url(#paint24_linear_113_1471)" fill-opacity="0.2"/>
<path d="M789.87 754H788.87L788.87 -2L789.87 -2L789.87 754Z" fill="url(#paint25_linear_113_1471)" fill-opacity="0.2"/>
<path d="M855.609 754H854.609L854.609 -2L855.609 -2L855.609 754Z" fill="url(#paint26_linear_113_1471)" fill-opacity="0.2"/>
<path d="M921.348 754H920.348L920.349 -2L921.349 -2L921.348 754Z" fill="url(#paint27_linear_113_1471)" fill-opacity="0.2"/>
<path d="M987.087 754H986.087L986.087 -2L987.087 -2L987.087 754Z" fill="url(#paint28_linear_113_1471)" fill-opacity="0.2"/>
<path d="M1052.83 754H1051.83V-2L1052.83 -2V754Z" fill="url(#paint29_linear_113_1471)" fill-opacity="0.2"/>
<path d="M1118.57 754H1117.57V-2L1118.57 -2V754Z" fill="url(#paint30_linear_113_1471)" fill-opacity="0.2"/>
<path d="M1184.3 754H1183.3V-2L1184.3 -2V754Z" fill="url(#paint31_linear_113_1471)" fill-opacity="0.2"/>
<path d="M1250.04 754H1249.04V-2L1250.04 -2V754Z" fill="url(#paint32_linear_113_1471)" fill-opacity="0.2"/>
<path d="M1315.78 754H1314.78V-2L1315.78 -2V754Z" fill="url(#paint33_linear_113_1471)" fill-opacity="0.2"/>
<path d="M1381.52 754H1380.52V-2L1381.52 -2V754Z" fill="url(#paint34_linear_113_1471)" fill-opacity="0.2"/>
<path d="M1447.26 754H1446.26V-2L1447.26 -2V754Z" fill="url(#paint35_linear_113_1471)" fill-opacity="0.2"/>
<path d="M1513 754H1512V-2L1513 -2V754Z" fill="url(#paint36_linear_113_1471)" fill-opacity="0.2"/>
<defs>
<linearGradient id="paint0_linear_113_1471" x1="756.5" y1="-2" x2="756.5" y2="779" gradientUnits="userSpaceOnUse">
<stop/>
<stop offset="0.95" stop-opacity="0"/>
</linearGradient>
<linearGradient id="paint1_linear_113_1471" x1="756.5" y1="-2" x2="756.5" y2="779" gradientUnits="userSpaceOnUse">
<stop/>
<stop offset="0.95" stop-opacity="0"/>
</linearGradient>
<linearGradient id="paint2_linear_113_1471" x1="756.5" y1="-2" x2="756.5" y2="779" gradientUnits="userSpaceOnUse">
<stop/>
<stop offset="0.95" stop-opacity="0"/>
</linearGradient>
<linearGradient id="paint3_linear_113_1471" x1="756.5" y1="-2" x2="756.5" y2="779" gradientUnits="userSpaceOnUse">
<stop/>
<stop offset="0.95" stop-opacity="0"/>
</linearGradient>
<linearGradient id="paint4_linear_113_1471" x1="756.5" y1="-2" x2="756.5" y2="779" gradientUnits="userSpaceOnUse">
<stop/>
<stop offset="0.95" stop-opacity="0"/>
</linearGradient>
<linearGradient id="paint5_linear_113_1471" x1="756.5" y1="-2" x2="756.5" y2="779" gradientUnits="userSpaceOnUse">
<stop/>
<stop offset="0.95" stop-opacity="0"/>
</linearGradient>
<linearGradient id="paint6_linear_113_1471" x1="756.5" y1="-2" x2="756.5" y2="779" gradientUnits="userSpaceOnUse">
<stop/>
<stop offset="0.95" stop-opacity="0"/>
</linearGradient>
<linearGradient id="paint7_linear_113_1471" x1="756.5" y1="-2" x2="756.5" y2="779" gradientUnits="userSpaceOnUse">
<stop/>
<stop offset="0.95" stop-opacity="0"/>
</linearGradient>
<linearGradient id="paint8_linear_113_1471" x1="756.5" y1="-2" x2="756.5" y2="779" gradientUnits="userSpaceOnUse">
<stop/>
<stop offset="0.95" stop-opacity="0"/>
</linearGradient>
<linearGradient id="paint9_linear_113_1471" x1="756.5" y1="-2" x2="756.5" y2="779" gradientUnits="userSpaceOnUse">
<stop/>
<stop offset="0.95" stop-opacity="0"/>
</linearGradient>
<linearGradient id="paint10_linear_113_1471" x1="756.5" y1="-2" x2="756.5" y2="779" gradientUnits="userSpaceOnUse">
<stop/>
<stop offset="0.95" stop-opacity="0"/>
</linearGradient>
<linearGradient id="paint11_linear_113_1471" x1="756.5" y1="-2" x2="756.5" y2="779" gradientUnits="userSpaceOnUse">
<stop/>
<stop offset="0.95" stop-opacity="0"/>
</linearGradient>
<linearGradient id="paint12_linear_113_1471" x1="756.5" y1="-2" x2="756.5" y2="779" gradientUnits="userSpaceOnUse">
<stop/>
<stop offset="0.95" stop-opacity="0"/>
</linearGradient>
<linearGradient id="paint13_linear_113_1471" x1="756.5" y1="-2" x2="756.5" y2="779" gradientUnits="userSpaceOnUse">
<stop/>
<stop offset="0.95" stop-opacity="0"/>
</linearGradient>
<linearGradient id="paint14_linear_113_1471" x1="756.5" y1="-2" x2="756.5" y2="779" gradientUnits="userSpaceOnUse">
<stop/>
<stop offset="0.95" stop-opacity="0"/>
</linearGradient>
<linearGradient id="paint15_linear_113_1471" x1="756.5" y1="-2" x2="756.5" y2="779" gradientUnits="userSpaceOnUse">
<stop/>
<stop offset="0.95" stop-opacity="0"/>
</linearGradient>
<linearGradient id="paint16_linear_113_1471" x1="756.5" y1="-2" x2="756.5" y2="779" gradientUnits="userSpaceOnUse">
<stop/>
<stop offset="0.95" stop-opacity="0"/>
</linearGradient>
<linearGradient id="paint17_linear_113_1471" x1="756.5" y1="-2" x2="756.5" y2="779" gradientUnits="userSpaceOnUse">
<stop/>
<stop offset="0.95" stop-opacity="0"/>
</linearGradient>
<linearGradient id="paint18_linear_113_1471" x1="756.5" y1="-2" x2="756.5" y2="779" gradientUnits="userSpaceOnUse">
<stop/>
<stop offset="0.95" stop-opacity="0"/>
</linearGradient>
<linearGradient id="paint19_linear_113_1471" x1="756.5" y1="-2" x2="756.5" y2="779" gradientUnits="userSpaceOnUse">
<stop/>
<stop offset="0.95" stop-opacity="0"/>
</linearGradient>
<linearGradient id="paint20_linear_113_1471" x1="756.5" y1="-2" x2="756.5" y2="779" gradientUnits="userSpaceOnUse">
<stop/>
<stop offset="0.95" stop-opacity="0"/>
</linearGradient>
<linearGradient id="paint21_linear_113_1471" x1="756.5" y1="-2" x2="756.5" y2="779" gradientUnits="userSpaceOnUse">
<stop/>
<stop offset="0.95" stop-opacity="0"/>
</linearGradient>
<linearGradient id="paint22_linear_113_1471" x1="756.5" y1="-2" x2="756.5" y2="779" gradientUnits="userSpaceOnUse">
<stop/>
<stop offset="0.95" stop-opacity="0"/>
</linearGradient>
<linearGradient id="paint23_linear_113_1471" x1="756.5" y1="-2" x2="756.5" y2="779" gradientUnits="userSpaceOnUse">
<stop/>
<stop offset="0.95" stop-opacity="0"/>
</linearGradient>
<linearGradient id="paint24_linear_113_1471" x1="756.5" y1="-2" x2="756.5" y2="779" gradientUnits="userSpaceOnUse">
<stop/>
<stop offset="0.95" stop-opacity="0"/>
</linearGradient>
<linearGradient id="paint25_linear_113_1471" x1="756.5" y1="-2" x2="756.5" y2="779" gradientUnits="userSpaceOnUse">
<stop/>
<stop offset="0.95" stop-opacity="0"/>
</linearGradient>
<linearGradient id="paint26_linear_113_1471" x1="756.5" y1="-2" x2="756.5" y2="779" gradientUnits="userSpaceOnUse">
<stop/>
<stop offset="0.95" stop-opacity="0"/>
</linearGradient>
<linearGradient id="paint27_linear_113_1471" x1="756.5" y1="-2" x2="756.5" y2="779" gradientUnits="userSpaceOnUse">
<stop/>
<stop offset="0.95" stop-opacity="0"/>
</linearGradient>
<linearGradient id="paint28_linear_113_1471" x1="756.5" y1="-2" x2="756.5" y2="779" gradientUnits="userSpaceOnUse">
<stop/>
<stop offset="0.95" stop-opacity="0"/>
</linearGradient>
<linearGradient id="paint29_linear_113_1471" x1="756.5" y1="-2" x2="756.5" y2="779" gradientUnits="userSpaceOnUse">
<stop/>
<stop offset="0.95" stop-opacity="0"/>
</linearGradient>
<linearGradient id="paint30_linear_113_1471" x1="756.5" y1="-2" x2="756.5" y2="779" gradientUnits="userSpaceOnUse">
<stop/>
<stop offset="0.95" stop-opacity="0"/>
</linearGradient>
<linearGradient id="paint31_linear_113_1471" x1="756.5" y1="-2" x2="756.5" y2="779" gradientUnits="userSpaceOnUse">
<stop/>
<stop offset="0.95" stop-opacity="0"/>
</linearGradient>
<linearGradient id="paint32_linear_113_1471" x1="756.5" y1="-2" x2="756.5" y2="779" gradientUnits="userSpaceOnUse">
<stop/>
<stop offset="0.95" stop-opacity="0"/>
</linearGradient>
<linearGradient id="paint33_linear_113_1471" x1="756.5" y1="-2" x2="756.5" y2="779" gradientUnits="userSpaceOnUse">
<stop/>
<stop offset="0.95" stop-opacity="0"/>
</linearGradient>
<linearGradient id="paint34_linear_113_1471" x1="756.5" y1="-2" x2="756.5" y2="779" gradientUnits="userSpaceOnUse">
<stop/>
<stop offset="0.95" stop-opacity="0"/>
</linearGradient>
<linearGradient id="paint35_linear_113_1471" x1="756.5" y1="-2" x2="756.5" y2="779" gradientUnits="userSpaceOnUse">
<stop/>
<stop offset="0.95" stop-opacity="0"/>
</linearGradient>
<linearGradient id="paint36_linear_113_1471" x1="756.5" y1="-2" x2="756.5" y2="779" gradientUnits="userSpaceOnUse">
<stop/>
<stop offset="0.95" stop-opacity="0"/>
</linearGradient>
</defs>
</svg>
