<svg width="18" height="18" viewBox="0 0 18 18" fill="none" xmlns="http://www.w3.org/2000/svg">
<path d="M13.0996 7.5746C13.0996 4.52323 10.626 2.04959 7.5746 2.04959C4.52323 2.04959 2.04959 4.52323 2.04959 7.5746C2.04959 10.626 4.52323 13.0996 7.5746 13.0996C10.6259 13.0996 13.0996 10.6259 13.0996 7.5746ZM14.7996 7.5746C14.7996 9.26638 14.2181 10.8223 13.2441 12.0535L17.0998 15.8977C17.4322 16.2291 17.433 16.7673 17.1015 17.0998C16.7701 17.4322 16.2319 17.433 15.8995 17.1015L12.0406 13.2543C10.8115 14.2222 9.26047 14.7996 7.5746 14.7996C3.58434 14.7996 0.349609 11.5648 0.349609 7.5746C0.349609 3.58434 3.58434 0.349609 7.5746 0.349609C11.5648 0.349609 14.7996 3.58434 14.7996 7.5746Z" fill="#EB6944"/>
<path d="M14.4492 7.57422C14.449 3.77743 11.371 0.699219 7.57422 0.699219C3.77756 0.699427 0.699427 3.77756 0.699219 7.57422C0.699219 11.371 3.77743 14.449 7.57422 14.4492C9.17876 14.4492 10.6546 13.9005 11.8242 12.9795L11.8789 12.9443C12.012 12.8748 12.1783 12.8974 12.2881 13.0068L16.1465 16.8535C16.342 17.0485 16.6585 17.048 16.8535 16.8525C17.0485 16.657 17.0481 16.3405 16.8525 16.1455L12.9971 12.3018C12.8712 12.1762 12.8594 11.9754 12.9697 11.8359C13.8964 10.6644 14.4492 9.18423 14.4492 7.57422ZM12.75 7.57422C12.7498 4.71632 10.4321 2.39941 7.57422 2.39941C4.71645 2.39962 2.39962 4.71645 2.39941 7.57422C2.39941 10.4321 4.71632 12.7498 7.57422 12.75C10.4323 12.75 12.75 10.4323 12.75 7.57422ZM13.4492 7.57422C13.4492 10.8189 10.8189 13.4492 7.57422 13.4492C4.32972 13.449 1.69922 10.8187 1.69922 7.57422C1.69943 4.32985 4.32985 1.69943 7.57422 1.69922C10.8187 1.69922 13.449 4.32972 13.4492 7.57422ZM15.1494 7.57422C15.1494 9.23515 14.6138 10.7718 13.707 12.0205L17.3467 15.6494C17.8159 16.1173 17.8173 16.8773 17.3496 17.3467C16.8817 17.816 16.1217 17.8174 15.6523 17.3496L12.0088 13.7158C10.7622 14.6174 9.22989 15.1494 7.57422 15.1494C3.39083 15.1492 1.37796e-07 11.7576 0 7.57422C0.00020848 3.39096 3.39096 0.000208476 7.57422 0C11.7576 1.3783e-07 15.1492 3.39083 15.1494 7.57422Z" fill="#EB6944"/>
</svg>
