<svg width="24" height="24" viewBox="0 0 24 24" fill="none" xmlns="http://www.w3.org/2000/svg">
<path d="M6.50021 1.3573e-08C6.82782 1.3573e-08 7.13662 0.154607 7.33379 0.417071L23.7903 22.3235C24.0284 22.6405 24.0667 23.0652 23.8902 23.4204C23.7136 23.7756 23.3524 24 22.9567 24H17.4997C17.1722 24 16.8633 23.8463 16.6662 23.584L0.209667 1.67646C-0.0282785 1.3595 -0.066699 0.93472 0.109801 0.579606C0.286394 0.224536 0.647659 1.3573e-08 1.04324 1.3573e-08H6.50021ZM18.0205 21.9065H20.8626L5.97948 2.09353H3.13635L18.0205 21.9065Z" fill="black"/>
<path d="M21.2179 0.322987C21.6224 -0.0869458 22.3018 -0.109829 22.7357 0.27244C23.1695 0.654712 23.1927 1.29665 22.7881 1.70658L13.8596 10.7545C13.455 11.1644 12.7757 11.1863 12.3418 10.804C11.908 10.4217 11.8838 9.7798 12.2883 9.36988L21.2179 0.322987Z" fill="black"/>
<path d="M9.21624 12.35C9.62097 11.9057 10.3009 11.8811 10.735 12.2952C11.169 12.7095 11.1931 13.4054 10.7885 13.8498L1.86076 23.6504C1.45594 24.0948 0.776134 24.1186 0.342019 23.7042C-0.0920491 23.2898 -0.116317 22.5939 0.28849 22.1495L9.21624 12.35Z" fill="black"/>
</svg>
